<?xml version="1.0" encoding="UTF-8" standalone="no"?>
<!DOCTYPE svg PUBLIC "-//W3C//DTD SVG 20010904//EN"
              "http://www.w3.org/TR/2001/REC-SVG-20010904/DTD/svg10.dtd">

<svg xmlns="http://www.w3.org/2000/svg"
     width="48" height="48"
     viewBox="0 0 801 801">
  <defs>
    <linearGradient id="gradient" x1="0%" y1="100%" x2="100%" y2="0%">
      <stop offset="0%" stop-color="#d8b4fe" />
      <stop offset="100%" stop-color="#60a5fa" />
    </linearGradient>
  </defs>
  <path id="Selection"
        fill="url(#gradient)" stroke="black" stroke-width="0"
        d="M 393.00,41.46
           C 399.36,40.58 405.90,40.98 412.00,43.10
             444.49,54.39 443.36,102.85 410.00,112.25
             406.30,113.30 401.85,114.13 398.00,113.91
             377.07,112.69 362.53,96.89 363.01,76.00
             363.15,70.29 365.07,62.83 368.13,58.00
             374.06,48.65 382.47,43.80 393.00,41.46 Z
           M 291.00,125.64
           C 293.84,125.06 295.06,124.91 298.00,125.04
             322.82,126.12 320.60,164.81 295.00,162.47
             275.35,160.68 270.62,133.33 291.00,125.64 Z
           M 503.00,125.56
           C 507.91,124.70 513.53,124.53 518.00,127.09
             534.98,136.79 527.12,164.31 507.00,162.47
             486.11,160.57 483.44,132.39 503.00,125.56 Z
           M 163.00,136.46
           C 170.72,135.40 179.82,135.64 187.00,138.90
             208.95,148.86 213.76,179.69 197.82,196.96
             189.54,205.93 180.67,208.13 169.00,208.00
             153.04,207.81 139.22,196.62 135.68,181.00
             134.86,177.40 134.96,173.67 135.00,170.00
             135.07,164.71 135.98,159.77 138.38,155.00
             143.43,144.92 152.22,138.86 163.00,136.46 Z
           M 619.00,136.52
           C 622.64,135.94 625.36,135.98 629.00,136.00
             661.18,136.15 675.60,175.73 653.82,197.83
             645.86,205.90 636.89,208.12 626.00,208.00
             596.87,207.66 581.70,174.38 597.60,151.00
             603.05,142.98 609.81,138.99 619.00,136.52 Z
           M 397.00,158.45
           C 426.66,155.90 433.86,196.13 409.00,206.24
             405.27,207.75 401.99,208.12 398.00,207.96
             387.49,207.54 377.70,200.63 375.20,190.00
             374.91,187.82 374.98,184.30 375.20,182.00
             375.05,177.81 375.36,174.78 377.41,171.00
             381.85,162.85 388.38,160.01 397.00,158.45 Z
           M 471.00,214.55
           C 487.70,212.56 489.06,234.26 477.00,237.57
             460.99,241.96 453.70,219.99 471.00,214.55 Z
           M 327.00,215.57
           C 331.68,214.83 336.09,215.50 339.35,219.34
             343.84,224.61 342.81,235.57 334.00,238.35
             318.94,243.11 310.67,221.96 327.00,215.57 Z
           M 240.00,222.28
           C 242.75,222.08 244.18,221.93 247.00,222.28
             250.91,222.20 254.54,223.05 258.00,224.91
             281.18,237.42 270.38,273.96 244.00,271.67
             221.18,269.69 215.34,244.72 226.39,231.02
             230.13,226.37 234.42,224.18 240.00,222.28 Z
           M 547.00,222.28
           C 549.75,222.08 551.18,221.93 554.00,222.28
             557.91,222.20 561.54,223.05 565.00,224.91
             588.08,237.36 577.29,273.96 551.00,271.67
             528.27,269.70 522.23,244.85 533.39,231.02
             537.13,226.37 541.41,224.18 547.00,222.28 Z
           M 395.00,260.65
           C 400.25,259.58 404.87,259.91 408.72,264.13
             414.36,270.30 412.26,281.69 403.99,284.35
             386.98,289.82 380.06,267.08 395.00,260.65 Z
           M 139.00,271.53
           C 146.12,270.36 153.50,270.50 158.79,276.11
             168.28,286.16 164.07,304.55 150.00,307.61
             143.54,309.02 136.03,307.64 131.33,302.79
             121.63,292.78 125.59,275.83 139.00,271.53 Z
           M 648.00,277.64
           C 655.12,276.21 662.47,276.60 667.81,282.11
             677.28,291.87 673.51,309.90 660.00,313.44
             635.55,319.85 625.11,286.28 648.00,277.64 Z
           M 356.00,284.70
           C 368.73,284.70 367.45,299.35 358.98,300.77
             348.35,302.56 344.31,287.80 356.00,284.70 Z
           M 442.06,284.74
           C 445.12,283.99 448.80,283.46 451.43,285.74
             454.98,288.81 455.20,297.04 448.98,299.40
             439.43,303.02 432.65,290.43 442.06,284.74 Z
           M 307.00,297.57
           C 325.19,295.96 326.73,320.23 311.00,322.66
             299.45,324.44 292.23,311.43 298.99,302.21
             301.12,299.31 303.72,298.50 307.00,297.57 Z
           M 488.00,297.51
           C 507.86,296.33 505.43,324.93 488.00,322.63
             474.97,320.92 471.52,301.31 488.00,297.51 Z
           M 223.00,313.74
           C 227.30,312.70 231.27,312.52 234.94,315.43
             242.20,321.17 240.55,332.52 232.00,335.99
             218.30,341.55 208.43,321.54 223.00,313.74 Z
           M 566.00,317.74
           C 570.33,316.69 575.04,316.57 578.66,319.65
             585.57,325.53 583.17,336.68 575.00,339.99
             561.56,345.44 551.46,325.52 566.00,317.74 Z
           M 395.28,341.02
           C 405.96,337.08 408.66,348.33 402.85,352.11
             396.39,356.31 388.06,347.99 395.28,341.02 Z
           M 289.06,345.02
           C 292.21,343.95 295.75,343.40 298.58,345.74
             302.60,349.04 302.49,356.17 297.87,358.83
             288.76,364.06 279.34,352.60 289.06,345.02 Z
           M 501.11,348.74
           C 504.18,347.97 507.92,347.49 510.57,349.74
             514.39,352.98 513.65,361.23 508.89,363.26
             499.16,367.42 492.12,354.44 501.11,348.74 Z
           M 359.04,355.78
           C 369.90,354.03 369.85,366.10 363.94,368.40
             356.48,371.30 349.44,361.20 359.04,355.78 Z
           M 435.04,355.78
           C 445.90,354.03 445.85,366.10 439.94,368.40
             432.48,371.30 425.44,361.20 435.04,355.78 Z
           M 70.00,364.44
           C 85.18,362.49 99.24,367.56 107.53,381.00
             120.41,401.86 108.99,431.66 84.00,435.86
             75.64,437.26 68.93,436.93 61.00,433.53
             30.75,420.59 32.75,371.63 70.00,364.44 Z
           M 715.00,364.46
           C 730.22,362.36 745.26,367.30 753.52,381.00
             765.73,401.23 755.01,430.90 731.00,435.47
             723.80,437.12 719.14,437.16 712.00,435.47
             685.74,428.20 677.53,394.73 695.32,375.09
             700.47,369.42 707.66,366.10 715.00,364.46 Z
           M 181.00,375.52
           C 185.34,375.43 189.02,375.97 193.00,377.80
             216.61,388.62 209.22,426.10 181.00,424.96
             162.02,424.19 150.96,403.16 160.99,387.00
             165.94,379.03 172.21,376.66 181.00,375.52 Z
           M 615.00,375.52
           C 619.37,375.42 624.04,376.01 628.00,378.00
             649.60,388.81 644.06,426.13 615.00,424.96
             600.47,424.37 592.00,414.10 592.00,400.00
             592.00,395.78 592.05,392.89 594.00,389.00
             598.63,379.74 605.33,376.77 615.00,375.52 Z
           M 267.00,388.65
           C 271.92,387.63 276.93,387.38 280.77,391.23
             286.14,396.59 285.42,408.93 276.00,412.15
             260.63,417.39 251.60,395.28 267.00,388.65 Z
           M 522.00,388.74
           C 526.37,387.68 531.18,387.40 534.89,390.43
             541.76,396.03 541.16,408.24 532.00,411.99
             517.68,417.86 505.62,397.38 522.00,388.74 Z
           M 343.06,393.75
           C 354.36,391.59 354.84,404.97 346.98,406.67
             339.64,408.25 335.42,398.36 343.06,393.75 Z
           M 451.02,393.78
           C 461.19,392.38 462.04,403.95 455.89,406.40
             448.45,409.37 440.97,399.26 451.02,393.78 Z
           M 359.04,431.78
           C 369.90,430.03 369.85,442.10 363.94,444.40
             356.48,447.30 349.44,437.20 359.04,431.78 Z
           M 435.04,431.78
           C 445.90,430.03 445.85,442.10 439.94,444.40
             432.48,447.30 425.44,437.20 435.04,431.78 Z
           M 292.11,437.74
           C 295.18,436.97 298.92,436.49 301.57,438.74
             305.39,441.98 304.65,450.23 299.89,452.26
             289.51,456.70 283.28,443.34 292.11,437.74 Z
           M 506.02,440.66
           C 509.15,440.49 512.08,440.77 514.26,443.42
             517.92,447.86 515.56,455.36 510.00,456.68
             499.40,459.20 495.72,444.53 506.02,440.66 Z
           M 396.11,448.03
           C 406.76,444.58 408.35,456.62 402.85,459.82
             396.43,463.57 387.30,455.15 396.11,448.03 Z
           M 227.00,460.57
           C 231.84,459.74 236.14,460.23 239.57,464.21
             244.88,470.37 241.74,481.22 234.00,483.43
             219.21,487.66 211.20,466.81 227.00,460.57 Z
           M 570.00,464.44
           C 571.97,464.26 572.91,463.96 575.00,464.44
             589.96,466.14 587.83,489.57 572.00,487.80
             560.58,486.52 557.14,470.09 570.00,464.44 Z
           M 305.00,478.57
           C 309.27,477.80 313.29,477.50 316.89,480.43
             324.72,486.80 322.59,499.69 313.00,502.43
             296.84,507.06 289.42,484.73 305.00,478.57 Z
           M 485.00,478.65
           C 489.45,477.73 494.04,477.60 497.79,480.65
             505.09,486.60 503.61,504.24 488.00,502.89
             475.05,501.78 472.58,483.99 485.00,478.65 Z
           M 141.00,487.53
           C 148.17,486.35 155.29,486.64 160.67,492.21
             170.28,502.14 166.02,520.56 152.00,523.61
             145.43,525.04 138.00,523.73 133.21,518.81
             123.59,508.94 127.67,491.81 141.00,487.53 Z
           M 650.00,493.64
           C 657.65,492.10 665.24,492.76 670.61,499.09
             678.90,508.88 674.96,526.05 662.00,529.44
             637.38,535.90 626.75,502.42 650.00,493.64 Z
           M 440.11,500.74
           C 443.55,499.88 446.91,499.54 449.69,502.31
             453.17,505.80 452.72,513.20 447.89,515.26
             437.51,519.70 431.28,506.34 440.11,500.74 Z
           M 351.06,502.02
           C 354.30,500.92 357.77,500.44 360.72,502.74
             364.91,506.00 364.51,513.16 359.87,515.83
             351.19,520.81 341.45,509.52 351.06,502.02 Z
           M 396.00,515.57
           C 400.77,514.82 405.14,515.49 408.61,519.22
             414.44,525.50 412.47,536.83 404.00,539.65
             387.41,545.19 379.39,522.07 396.00,515.57 Z
           M 240.00,529.53
           C 249.63,527.96 259.12,530.11 265.47,538.04
             276.66,552.01 269.38,573.55 252.00,577.76
             225.80,584.11 211.27,552.94 228.10,536.10
             231.62,532.58 235.32,530.91 240.00,529.53 Z
           M 547.00,529.52
           C 556.23,528.05 565.20,529.85 571.67,537.09
             584.25,551.16 576.43,574.02 558.00,577.98
             532.49,583.47 517.58,552.03 536.04,535.19
             539.65,531.90 542.41,530.78 547.00,529.52 Z
           M 466.02,562.74
           C 469.81,561.81 474.48,561.39 477.90,563.74
             485.20,568.75 484.81,581.46 475.00,585.11
             462.21,589.86 451.53,570.71 466.02,562.74 Z
           M 323.00,563.74
           C 327.31,562.70 332.24,562.39 335.87,565.43
             342.16,570.69 341.30,582.51 332.00,585.72
             318.33,590.45 308.92,571.32 323.00,563.74 Z
           M 167.00,592.43
           C 206.14,587.72 221.85,639.81 191.00,659.29
             186.74,661.98 181.00,663.98 176.00,664.70
             157.47,667.37 139.47,655.50 135.52,637.00
             134.85,633.86 134.96,629.29 135.00,626.00
             135.11,617.01 138.86,608.61 145.29,602.30
             151.53,596.17 158.63,593.80 167.00,592.43 Z
           M 623.00,592.44
           C 663.19,587.32 678.96,640.66 647.00,659.65
             643.01,662.02 637.61,664.04 633.00,664.70
             598.35,669.70 577.42,628.14 601.18,603.09
             607.49,596.44 614.26,594.07 623.00,592.44 Z
           M 392.00,593.53
           C 401.27,592.01 410.93,592.72 417.67,600.10
             429.76,613.33 424.20,637.11 406.00,641.32
             396.87,643.43 386.65,641.25 380.39,633.91
             375.54,628.23 374.92,623.10 375.00,616.00
             375.14,604.73 381.13,596.78 392.00,593.53 Z
           M 290.00,638.48
           C 296.33,637.87 303.32,639.89 307.36,645.09
             315.76,655.89 310.09,673.66 296.00,675.79
             283.54,677.67 273.99,669.63 274.01,657.00
             274.01,651.83 275.00,648.16 278.53,644.19
             281.83,640.46 285.35,639.49 290.00,638.48 Z
           M 502.00,638.45
           C 508.71,637.88 515.91,640.35 519.87,646.09
             527.78,657.57 521.07,674.08 507.00,675.82
             493.78,677.44 485.70,668.88 486.01,656.00
             486.12,651.68 486.76,648.57 489.56,645.09
             493.09,640.70 496.72,639.46 502.00,638.45 Z
           M 392.00,687.46
           C 403.37,685.89 414.05,687.46 423.00,695.21
             442.02,711.67 439.53,743.19 417.00,755.20
             409.22,759.35 404.48,759.10 396.00,759.00
             371.07,758.70 356.66,730.97 365.48,709.00
             370.26,697.08 379.76,690.19 392.00,687.46 Z" />
</svg>
